<svg id="Layer_1" xmlns="http://www.w3.org/2000/svg" width="338.9" height="89.6" viewBox="0 0 338.9 89.6"><style>.st0{enable-background:new ;} .st1{fill:#FFFFFF;} .st2{fill:#F2C612;}</style><path class="st0 st1" d="M90.5 68.1v11.8h-5.7V48c3.8-.2 6-.2 6.6-.2 5 0 8.7.8 11.1 2.3 2.3 1.5 3.5 4 3.5 7.3 0 7.3-4.3 11-13 11-.6-.1-1.5-.2-2.5-.3zm0-15.2v10.2c1 .1 1.7.2 2.3.2 2.6 0 4.5-.4 5.7-1.3 1.2-.9 1.8-2.3 1.8-4.2 0-3.3-2.7-5-8-5-.7 0-1.3 0-1.8.1zm35.3 27V65.5c0-1.4-.5-2.6-1.4-3.5s-2.1-1.3-3.5-1.3c-.9 0-1.8.2-2.7.7s-1.6 1-2 1.7v16.8h-5.5V47.8l5.5-1.3V58c1.4-1.3 3.4-1.9 5.8-1.9 2.9 0 5.2.8 6.8 2.4 1.6 1.6 2.4 3.9 2.4 7v14.4h-5.4zm12.8 0V61h-3v-4.5h8.5v23.4h-5.5zm2.8-32.4c.9 0 1.6.3 2.2.9.6.6.9 1.4.9 2.2 0 .9-.3 1.6-.9 2.2-.6.6-1.4.9-2.2.9-.9 0-1.6-.3-2.2-.9-.6-.6-.9-1.4-.9-2.2 0-.9.3-1.6.9-2.2.6-.6 1.4-.9 2.2-.9zm10 .3l5.5-1.3v26.3c0 2.9.9 4.6 2.6 5.1-.8 1.6-2.3 2.4-4.3 2.4-2.5 0-3.7-1.7-3.7-5.1V47.8h-.1zm25.2 29.8c-.5.8-1.4 1.5-2.6 2s-2.5.8-3.8.8c-2.5 0-4.5-.6-5.9-1.9s-2.2-3-2.2-5.4c0-2.7 1-4.8 3-6.3s4.9-2.3 8.6-2.3c.6 0 1.4.1 2.3.3 0-2.7-1.7-4.1-5.2-4.1-2.1 0-3.8.3-5.1 1l-1.2-4.2c1.9-.9 4.1-1.4 6.7-1.4 3.6 0 6.2.8 7.8 2.4s2.5 4.7 2.5 9.2v5c0 3.1.6 5.1 1.9 5.9-.5.8-1 1.3-1.5 1.5-.6.2-1.2.3-1.9.3-.8 0-1.5-.3-2.1-.9s-1-1.3-1.3-1.9zm-.5-8.7c-.9-.2-1.6-.3-2.1-.3-4.3 0-6.5 1.4-6.5 4.2 0 2.1 1.2 3.1 3.6 3.1 3.3 0 4.9-1.6 4.9-4.9v-2.1h.1zm26.4 11v-1.4c-.5.5-1.2.9-2.3 1.3s-2.2.6-3.3.6c-3.3 0-5.8-1-7.7-3.1s-2.8-4.9-2.8-8.6 1.1-6.7 3.2-9 4.8-3.5 8.1-3.5c1.8 0 3.4.4 4.8 1.1v-9.4l5.5-1.3V80l-5.5-.1zm0-17.8c-1.2-.9-2.4-1.4-3.6-1.4-2.2 0-3.9.7-5 2S192 66 192 68.4c0 4.9 2.3 7.3 7 7.3.5 0 1.2-.2 1.9-.5.8-.3 1.3-.6 1.5-.9V62.1h.1zm31.7 7.8h-16.7c.1 1.9.7 3.3 1.9 4.3s2.8 1.5 4.8 1.5c2.5 0 4.4-.6 5.7-1.9L232 78c-1.9 1.6-4.8 2.3-8.6 2.3-3.6 0-6.4-1-8.5-3.1s-3.1-5-3.1-8.7 1.1-6.7 3.4-8.9c2.3-2.3 5-3.4 8.2-3.4 3.4 0 6.1 1 8.2 3 2 2 3.1 4.6 3.1 7.7 0 .6-.2 1.6-.5 3zm-16.5-4.1h11.5c-.4-3.4-2.3-5.1-5.7-5.1-3.1 0-5 1.7-5.8 5.1zm22.3-18l5.5-1.3v26.3c0 2.9.9 4.6 2.6 5.1-.8 1.6-2.3 2.4-4.3 2.4-2.5 0-3.7-1.7-3.7-5.1V47.8h-.1zm17.2 31.5V89h-5.5V56.5h5.5v1.6c1.4-1.3 3-2 5-2 7.4 0 11.2 4.1 11.2 12.3 0 3.8-1 6.8-3.1 8.8-2.1 2.1-4.9 3.1-8.4 3.1-1.7 0-3.3-.3-4.7-1zm0-17v12.3c1 .8 2.1 1.2 3.5 1.2 2.5 0 4.3-.6 5.4-1.8 1.1-1.2 1.6-3.1 1.6-5.7 0-2.8-.5-4.7-1.6-5.8s-2.9-1.7-5.4-1.7c-1.3-.1-2.5.4-3.5 1.5zm36.1 17.6V65.5c0-1.4-.5-2.6-1.4-3.5s-2.1-1.3-3.5-1.3c-.9 0-1.8.2-2.7.7s-1.6 1-2 1.7v16.8h-5.5V47.8l5.5-1.3V58c1.4-1.3 3.4-1.9 5.8-1.9 2.9 0 5.2.8 6.8 2.4s2.4 3.9 2.4 7v14.4h-5.4zm12.9 0V61h-3v-4.5h8.5v23.4h-5.5zm2.8-32.4c.9 0 1.6.3 2.2.9.6.6.9 1.4.9 2.2 0 .9-.3 1.6-.9 2.2-.6.6-1.4.9-2.2.9-.9 0-1.6-.3-2.2-.9-.6-.6-.9-1.4-.9-2.2 0-.9.3-1.6.9-2.2s1.3-.9 2.2-.9zm22 30.1c-.5.8-1.4 1.5-2.6 2s-2.5.8-3.8.8c-2.5 0-4.5-.6-5.9-1.9s-2.2-3-2.2-5.4c0-2.7 1-4.8 3-6.3s4.9-2.3 8.6-2.3c.6 0 1.4.1 2.3.3 0-2.7-1.7-4.1-5.2-4.1-2.1 0-3.8.3-5.1 1l-1.2-4.2c1.9-.9 4.1-1.4 6.7-1.4 3.6 0 6.2.8 7.8 2.4s2.5 4.7 2.5 9.2v5c0 3.1.6 5.1 1.9 5.9-.5.8-1 1.3-1.5 1.5-.6.2-1.2.3-1.9.3-.8 0-1.5-.3-2.1-.9-.6-.6-1.1-1.3-1.3-1.9zm-.5-8.7c-.9-.2-1.6-.3-2.1-.3-4.3 0-6.5 1.4-6.5 4.2 0 2.1 1.2 3.1 3.6 3.1 3.3 0 4.9-1.6 4.9-4.9v-2.1h.1zM98.3 15.8l-1.4 2.8c-.7-.7-1.9-1.1-3.6-1.1-1.6 0-2.9.7-3.9 2s-1.5 3-1.5 5 .5 3.6 1.4 4.8c.9 1.2 2.2 1.8 3.7 1.8 1.8 0 3.2-.6 4.2-1.9l1.6 2.7c-1.4 1.4-3.4 2.2-6 2.2s-4.7-.9-6.1-2.6c-1.5-1.7-2.2-4.1-2.2-7.1 0-2.8.8-5.1 2.4-7s3.7-2.8 6.2-2.8c2.2-.1 3.9.3 5.2 1.2zm3.9 17.8V22.5h-1.8v-2.6h5v13.8h-3.2v-.1zm1.6-19.1c.5 0 1 .2 1.3.5.4.4.5.8.5 1.3s-.2 1-.5 1.3c-.4.4-.8.5-1.3.5s-1-.2-1.3-.5c-.4-.4-.5-.8-.5-1.3s.2-1 .5-1.3c.4-.3.8-.5 1.3-.5zm5.9 7.9h-1.6v-2.6h1.6V17l3.2-1.2v4h3.8v2.6h-3.8v6c0 1 .2 1.7.5 2.1s.8.6 1.6.6 1.5-.2 2.2-.6v3c-.7.3-1.8.4-3.2.4-1.4 0-2.4-.4-3.2-1.2-.7-.8-1.1-1.9-1.1-3.3v-7zm16 13.4c-.3.9-1.1 1.7-2.2 2.3s-2.4.9-3.9.9v-2.8c2.5 0 3.7-.6 3.7-1.9 0-.8-.3-2.1-1-3.8L118 19.8h3.3l3.8 9.5 3.4-9.5h3.3l-6.1 16zM137 26.7c0-2.1.6-3.8 1.8-5.1 1.2-1.3 2.8-2 4.8-2 2.1 0 3.7.6 4.9 1.9s1.7 3 1.7 5.2-.6 3.9-1.8 5.2c-1.2 1.3-2.8 1.9-4.8 1.9-2.1 0-3.7-.7-4.9-2-1.1-1.2-1.7-2.9-1.7-5.1zm3.4 0c0 3 1.1 4.5 3.3 4.5 1 0 1.8-.4 2.4-1.2s.9-1.9.9-3.4c0-3-1.1-4.5-3.3-4.5-1 0-1.8.4-2.4 1.2-.6.9-.9 2-.9 3.4zm20.1-9.5c-.7-.2-1.2-.3-1.6-.3-.6 0-1.1.3-1.5.8s-.6 1.2-.6 1.9v.3h2.9v2.6h-2.8v11.1h-3.2V22.5h-2v-2.6h2c.1-1.7.6-3 1.5-4.1.9-1 2.1-1.6 3.6-1.6.8 0 1.7.2 2.8.5l-1.1 2.5z"/><path class="st2" d="M29.2 69.9c.2 2.1.6 5.3.9 6.6 13 3.4 21.9 1.7 24 .3 1.5-1.1 2.6-1.6.5-5.9-4.8 1.9-14.6 1.8-25.4-1M23.9 75.8c-1.5-.5-3 .3-3.5 1.8-.4 1.1 0 2.3.9 3l-.6 1.3s.4.4 1.1.6 1.1.1 1.1.1l.2-1.4c1.2 0 2.2-.7 2.6-1.9.5-1.4-.3-3-1.8-3.5M71 16.9c.7-2.4-.9-2.8-1.4-2.9L53.8 9.6c-1.2-.3-.8-3.1-1.9-3.4 0 0-11.3-3.2-12.4-3.5S37.3 5 36.1 4.6L20.2.1c-.5-.1-2.1-.6-2.7 1.8l-3.6 12.9c-.1.2-.2.2-.4.2l-1.1-.3c-.4-.1-.7 0-1 .6s-.7 1.5-1.1 2.9c-.5 1.6-.6 3-.7 3.5 0 .5 0 .8.6 1l10.1 2.8c.6.2 1.4.2 1.9-.9 1.1-2.3 3.8-6.7 4.7-7.2 1.2-.7 8.4.5 8.4.5s-.2.4-.5 1.5.4 3.9-.3 4.3c-3.5 2-9.9-1-12 4.9-5.2 15.1-9.1 21.5-15 25.4 2.8 3.3 9.3 6.7 18.8 9.6-.1-.3-.1-.6-.1-.9 0-.5 0-1.2-.2-3.4-.2-2.1-.4-3.1-.4-4.1 0-1.1.1-2 .6-3.8.1-.2.1-.5.2-.7.7-2.4 3-9.1 3.9-11 .2-.3.4-.3.4-.3.1 0 .3.1.2.4-.2 2.1-1.9 8.9-2.6 11.4-.1.2-.1.5-.2.7-.5 1.7-.4 2.5-.4 3.4s.3 2 .5 4.1c.2 2.2.2 3.1.2 3.6 0 .4 0 .6.3 1.3h.2c10.8 3 19.1 3.7 23.5 2.2-3-6.4-3-14 .2-29.6 1.3-6.2-5.7-6.8-7.7-10.4-.4-.6 1.6-2.7 2-3.8.3-1.1.4-1.6.4-1.6s7 2.8 7.7 4c.5.9.6 6.1.3 8.6-.1 1.2.6 1.6 1.2 1.8l10.1 2.8c.6.2.8-.1 1-.6s.8-1.7 1.3-3.3c.4-1.4.5-2.4.5-3.1 0-.6-.2-.9-.6-1l-1.2-.2c-.2 0-.3-.2-.2-.4M3.3 56.6C-.8 59.4-.3 60.8.9 62.3c2.8 3.6 10.3 9 24 12.8 0 0 2.7.7 3.1.8-.2-1.1-.7-4.6-.9-6.6-11.5-3.2-20.6-8.4-23.8-12.7"/></svg>